<svg width="56" height="39" viewBox="0 0 56 39" fill="none" xmlns="http://www.w3.org/2000/svg">
<path d="M3.98018 15C4.16785 14.7214 4.50245 14.4565 4.76771 14.243C6.62617 12.7426 9.4967 11.2851 15 10.3642V5C10.5974 5.62343 7.11927 6.65163 3.7507 8.85305C2.61867 9.79961 2.02981 10.3962 2.00064 11.7344C1.97698 12.8288 2.60436 13.9238 3.98018 15Z" fill="white"/>
<path d="M27.5574 22.3268C21.8682 22.2678 16.6142 21.6923 11.2863 20.4317C1.80475 18.1904 0.626521 15.0502 0.127581 14C-0.209787 18.1909 0.226004 21.3351 0.249329 21.6017C0.573043 25.3231 4.79612 28.2346 7.84324 29.3283C14.107 31.5772 20.7304 32.7403 27.5574 32.8383V39L39 27.4705L27.5574 15.9404V22.3268Z" fill="white"/>
<path d="M26.7693 9.95522C32.2043 9.98122 38.3795 10.8011 44.4069 12.7378C46.8792 13.5323 48.8706 14.7139 50.487 16C51.6017 15.6192 53.1996 14.173 52.9795 12.769C52.436 9.29944 47.5108 7.29106 46.6575 7.00795C40.7046 5.03077 33.2913 4.41889 26.7693 4.36054V0L20 7.19688L26.7693 14.3926V9.95522Z" fill="white"/>
<path d="M55.752 14C55.4612 15.6547 52.8351 19.1978 42 21.4427V33C45.9919 32.0608 50.6966 29.6907 53.2149 27.3837C54.2419 26.4445 54.8698 25.1488 55.2519 24.2113C56.4238 21.343 55.9082 15.7473 55.752 14Z" fill="white"/>
</svg>
