<svg width="63" height="42" viewBox="0 0 63 42" fill="none" xmlns="http://www.w3.org/2000/svg">
<path d="M51.7532 17.046C51.0782 16.8529 50.3748 17.2436 50.1819 17.9185C49.9888 18.5933 50.3795 19.2968 51.0542 19.4897C56.8549 21.1487 60.4583 23.5549 60.4583 25.7694C60.4583 27.39 58.4872 29.1688 55.0505 30.6497C51.2695 32.2789 45.9057 33.471 39.9412 34.0079L34.7354 33.9374C34.7294 33.9374 34.7236 33.9373 34.7177 33.9373C34.0238 33.9373 33.4568 34.495 33.4474 35.1909C33.4379 35.8927 33.9992 36.4694 34.7008 36.4788L39.9722 36.5502C39.9781 36.5502 39.9838 36.5504 39.9895 36.5504C40.0272 36.5504 40.0649 36.5487 40.1023 36.5454C46.3544 35.988 52.0203 34.7231 56.0564 32.984C61.7953 30.5108 63 27.6956 63 25.7694C63 22.2182 59.0057 19.1202 51.7532 17.046Z" fill="white"/>
<path d="M14.3099 15.5986C13.6082 15.5986 13.0391 16.1676 13.0391 16.8694C13.0391 17.5713 13.6082 18.1403 14.3099 18.1403H19.5358V23.3931H14.3099C13.6082 23.3931 13.0391 23.9621 13.0391 24.664C13.0391 25.3659 13.6082 25.9348 14.3099 25.9348H20.8066C21.5085 25.9348 22.0775 25.3659 22.0775 24.664V9.07493C22.0775 8.37304 21.5085 7.80408 20.8066 7.80408H14.3099C13.6082 7.80408 13.0391 8.37304 13.0391 9.07493C13.0391 9.77682 13.6082 10.3458 14.3099 10.3458H19.5358V15.5986H14.3099Z" fill="white"/>
<path d="M26.0072 25.9349H33.8018C34.5036 25.9349 35.0727 25.366 35.0727 24.6641V16.8696C35.0727 16.1677 34.5037 15.5987 33.8018 15.5987H27.278V10.3458H32.5039C33.2058 10.3458 33.7748 9.77682 33.7748 9.07493C33.7748 8.37304 33.2058 7.80408 32.5039 7.80408H26.0072C25.3053 7.80408 24.7363 8.37304 24.7363 9.07493V24.6641C24.7363 25.366 25.3053 25.9349 26.0072 25.9349ZM27.278 18.1403H32.531V23.3931H27.278V18.1403Z" fill="white"/>
<path d="M38.9964 25.9349H46.7911C47.4928 25.9349 48.0619 25.366 48.0619 24.6641V9.07493C48.0619 8.37304 47.4928 7.80408 46.7911 7.80408H38.9964C38.2947 7.80408 37.7256 8.37304 37.7256 9.07493V24.6641C37.7256 25.366 38.2947 25.9349 38.9964 25.9349ZM40.2673 10.3458H45.5202V23.3932H40.2673V10.3458Z" fill="white"/>
<path d="M23.2384 29.0953C22.7851 28.5595 21.9832 28.4926 21.4474 28.9459C20.9115 29.3992 20.8446 30.201 21.2978 30.7369L24.1402 34.097C18.1423 33.6396 12.71 32.5404 8.71588 30.9644C4.79213 29.416 2.5417 27.5227 2.5417 25.7695C2.5417 23.7339 5.5582 21.5401 10.6107 19.9012C11.2784 19.6847 11.6441 18.9679 11.4275 18.3002C11.2111 17.6326 10.4941 17.267 9.82661 17.4834C6.88725 18.4368 4.55639 19.5711 2.89856 20.8545C0.975252 22.3439 0 23.9974 0 25.7695C0 28.7057 2.69141 31.3195 7.78295 33.3285C11.9214 34.9615 17.4703 36.1078 23.5702 36.602L21.0357 39.4111C20.5654 39.9321 20.6066 40.7358 21.1278 41.2059C21.3708 41.4253 21.6753 41.5333 21.9788 41.5333C22.3258 41.5333 22.6717 41.3918 22.9226 41.1138L27.5469 35.9891C27.7576 35.7556 27.8742 35.4523 27.8742 35.1377V35.0406C27.8742 34.7401 27.7677 34.4493 27.5737 34.2199L23.2384 29.0953Z" fill="white"/>
<path d="M50.4691 7.73875H55.6642C56.366 7.73875 56.9351 7.16979 56.9351 6.4679V1.27086C56.9351 0.568962 56.366 0 55.6642 0H50.4691C49.7673 0 49.1982 0.568962 49.1982 1.27086V6.4679C49.1982 7.16979 49.7673 7.73875 50.4691 7.73875ZM51.7399 2.54171H54.3934V5.19704H51.7399V2.54171Z" fill="white"/>
</svg>
