<svg width="56" height="39" fill="none" xmlns="http://www.w3.org/2000/svg"><path d="M3.98 15c.188-.279.522-.543.788-.757 1.858-1.5 4.729-2.958 10.232-3.879V5c-4.403.623-7.88 1.652-11.25 3.853C2.62 9.8 2.03 10.396 2 11.734c-.023 1.095.604 2.19 1.98 3.266z" fill="#fff"/><path d="M27.557 22.327c-5.689-.06-10.943-.635-16.27-1.895C1.804 18.19.626 15.05.126 14c-.337 4.19.099 7.335.122 7.602.324 3.721 4.547 6.633 7.594 7.726 6.264 2.25 12.887 3.412 19.714 3.51V39L39 27.47 27.557 15.94v6.387zM26.77 9.955c5.434.026 11.61.846 17.637 2.783A19.038 19.038 0 0150.487 16c1.115-.38 2.713-1.827 2.492-3.231-.543-3.47-5.468-5.478-6.322-5.761-5.952-1.977-13.366-2.59-19.888-2.647V0L20 7.197l6.77 7.196V9.955zM55.752 14c-.29 1.655-2.917 5.198-13.752 7.443V33c3.992-.94 8.697-3.31 11.215-5.616 1.027-.94 1.655-2.235 2.037-3.173 1.172-2.868.656-8.464.5-10.211z" fill="#fff"/></svg>